<?xml version="1.0" standalone="no"?>
<!DOCTYPE svg PUBLIC "-//W3C//DTD SVG 20010904//EN"
 "http://www.w3.org/TR/2001/REC-SVG-20010904/DTD/svg10.dtd">
<svg version="1.0" xmlns="http://www.w3.org/2000/svg"
 width="400.000000pt" height="400.000000pt" viewBox="0 0 400.000000 400.000000"
 preserveAspectRatio="xMidYMid meet">
<metadata>
Created by potrace 1.11, written by Peter Selinger 2001-2013
</metadata>
<g transform="translate(0.000000,400.000000) scale(0.100000,-0.100000)"
fill="#000000" stroke="none">
<path d="M1590 3270 c-150 -8 -279 -18 -340 -25 -19 -3 -75 -9 -125 -15 -49
-6 -101 -13 -115 -15 -14 -2 -70 -11 -125 -20 -261 -41 -514 -125 -604 -201
-58 -48 -61 -64 -61 -279 l0 -195 1781 0 1780 0 -3 209 -3 210 -35 36 c-124
129 -533 231 -1145 285 -149 14 -825 20 -1005 10z m421 -58 c65 -42 168 -141
175 -168 4 -13 1 -31 -6 -39 -10 -13 -16 -13 -46 0 -19 8 -34 11 -34 7 0 -3
-7 4 -16 16 -9 13 -22 21 -29 18 -7 -2 -21 5 -32 17 -18 22 -18 22 2 7 14 -10
13 -7 -3 8 -13 12 -27 20 -31 17 -8 -4 -66 50 -60 57 1 1 -5 15 -15 31 -15 22
-16 30 -6 42 19 22 51 18 101 -13z m1255 -150 c27 -18 6 -216 -32 -308 -15
-37 -43 -45 -64 -19 -17 20 -7 169 15 245 23 76 50 103 81 82z m-2506 -56 c56
-36 149 -126 166 -159 15 -27 14 -31 -4 -49 -18 -18 -22 -18 -53 -5 -69 30
-205 152 -215 194 -14 56 36 65 106 19z m857 -88 c13 -17 14 -56 2 -63 -5 -4
-6 2 -2 12 6 16 5 16 -10 5 -9 -8 -15 -19 -14 -25 1 -7 -6 -11 -17 -9 -10 2
-16 0 -13 -5 3 -5 -2 -9 -11 -10 -9 -1 -54 -15 -100 -32 -95 -35 -137 -39
-151 -14 -22 39 28 76 164 122 98 33 137 38 152 19z m1078 -23 c98 -18 140
-42 141 -78 1 -23 -5 -29 -37 -38 -30 -9 -56 -8 -130 5 -115 21 -169 47 -169
81 0 47 59 56 195 30z"/>
<path d="M1960 3125 c13 -14 26 -25 28 -25 3 0 -5 11 -18 25 -13 14 -26 25
-28 25 -3 0 5 -11 18 -25z"/>
<path d="M183 2415 c-89 -39 -96 -179 -10 -230 31 -20 63 -20 1827 -20 1764 0
1796 0 1827 20 87 52 79 193 -12 231 -51 21 -3584 20 -3632 -1z"/>
<path d="M220 2020 l0 -60 1780 0 1780 0 0 60 0 60 -1780 0 -1780 0 0 -60z"/>
<path d="M34 1846 c-36 -30 -39 -86 -6 -119 l23 -22 1949 0 1949 0 23 22 c33
33 30 89 -6 119 l-27 24 -1939 0 -1939 0 -27 -24z"/>
<path d="M267 1599 c-32 -19 -47 -65 -47 -148 0 -75 2 -83 29 -113 l29 -33
1722 0 1722 0 29 33 c27 30 29 38 29 113 0 85 -15 130 -49 149 -27 14 -3439
13 -3464 -1z"/>
<path d="M222 1036 l3 -184 30 -44 c18 -25 49 -52 75 -65 l44 -23 1629 0
c1580 0 1629 1 1665 19 96 49 112 94 112 311 l0 170 -1781 0 -1781 0 4 -184z"/>
</g>
</svg>
